<?xml version="1.0" encoding="utf-8"?>
<!-- Generator: Adobe Illustrator 17.1.0, SVG Export Plug-In . SVG Version: 6.00 Build 0)  -->
<!DOCTYPE svg PUBLIC "-//W3C//DTD SVG 1.1//EN" "http://www.w3.org/Graphics/SVG/1.1/DTD/svg11.dtd">
<svg version="1.1" xmlns="http://www.w3.org/2000/svg" xmlns:xlink="http://www.w3.org/1999/xlink" x="0px" y="0px"
	 viewBox="0 0 24.5 24.5" enable-background="new 0 0 24.5 24.5" xml:space="preserve">
<g id="Grid_1_">
</g>
<g id="Loading_animation_graphics__x2B__SVG">
	<path fill="#FFFFFF" d="M24.5,24.5c0,0,0-1.684-0.14-2.565c-0.115-0.695-1.078-1.614-5.174-3.12
		c-4.032-1.48-3.783-0.759-3.783-3.484c0-1.767,0.9-0.74,1.474-4.096c0.223-1.321,0.402-0.44,0.887-2.558
		c0.255-1.11-0.172-1.193-0.121-1.723c0.051-0.53,0.102-1.002,0.198-2.086C17.954,3.528,16.71,0,12.25,0S6.546,3.528,6.667,4.874
		c0.096,1.078,0.147,1.557,0.198,2.086c0.051,0.53-0.376,0.613-0.121,1.723c0.485,2.112,0.664,1.231,0.887,2.558
		c0.574,3.356,1.474,2.329,1.474,4.096c0,2.731,0.249,2.01-3.783,3.484c-4.096,1.499-5.066,2.424-5.174,3.12C0,22.816,0,24.5,0,24.5
		h12.25H24.5z"/>
</g>
<g id="Artboard_6">
	<g id="BG_5_">
	</g>
	<g id="Footer_5_">
	</g>
	<g id="Body_5_">
	</g>
	<g id="Header_5_">
	</g>
</g>
<g id="Artboard_5">
	<g id="BG_4_">
	</g>
	<g id="Footer_4_">
	</g>
	<g id="Body_4_">
	</g>
	<g id="Header_4_">
	</g>
</g>
<g id="Artboard_4">
	<g id="BG_3_">
	</g>
	<g id="Footer_3_">
	</g>
	<g id="Body_3_">
	</g>
	<g id="Header_3_">
	</g>
</g>
<g id="Artboard_3">
	<g id="BG_2_">
	</g>
	<g id="Body_2_">
	</g>
	<g id="Footer_2_">
	</g>
	<g id="Header_2_">
	</g>
</g>
<g id="Artboard_2">
	<g id="BG_1_">
	</g>
	<g id="Body_1_">
	</g>
	<g id="Footer_1_">
	</g>
	<g id="Header_1_">
	</g>
</g>
<g id="Artboard_1">
	<g id="BG">
	</g>
	<g id="Body">
	</g>
	<g id="Footer">
	</g>
	<g id="Header">
	</g>
</g>
</svg>
