<?xml version="1.0" encoding="utf-8"?>
<!-- Generator: Adobe Illustrator 17.1.0, SVG Export Plug-In . SVG Version: 6.00 Build 0)  -->
<!DOCTYPE svg PUBLIC "-//W3C//DTD SVG 1.1//EN" "http://www.w3.org/Graphics/SVG/1.1/DTD/svg11.dtd">
<svg version="1.1" xmlns="http://www.w3.org/2000/svg" xmlns:xlink="http://www.w3.org/1999/xlink" x="0px" y="0px"
	 viewBox="0 0 14.399 14.397" enable-background="new 0 0 14.399 14.397" xml:space="preserve">
<g id="Grid_1_">
</g>
<g id="Artboard_6">
	<g id="BG_5_">
	</g>
	<g id="Body_5_">
	</g>
	<g id="Footer_5_">
	</g>
	<g id="Header_5_">
	</g>
</g>
<g id="Artboard_5">
	<g id="BG">
	</g>
	<g id="Body">
	</g>
	<g id="Footer">
	</g>
	<g id="Header_4_">
	</g>
</g>
<g id="ARtboard_4">
	<g id="BG_4_">
	</g>
	<g id="Body_4_">
	</g>
	<g id="Footer_4_">
	</g>
	<g id="Header_3_">
	</g>
</g>
<g id="Artboard_3_4_">
	<g id="BG_3_">
	</g>
	<g id="Body_3_">
	</g>
	<g id="Footer_3_">
	</g>
	<g id="Header_2_">
	</g>
</g>
<g id="Artboard_2_3_">
	<g id="BG_2_">
	</g>
	<g id="Body_2_">
	</g>
	<g id="Footer_2_">
	</g>
	<g id="Header">
		<g>
			<path fill="#ABC5C2" d="M7.199,0C7.139,0,7.08,0.004,7.021,0.008L6.679,0.173L6.671,4.137H7.87v-3.05
				c3,0.269,5.544,2.905,5.544,6.112c0,3.387-2.792,6.143-6.179,6.143c-3.387,0-6.16-2.756-6.16-6.143
				c0-1.639,0.631-3.181,1.793-4.342L3.039,2.68L2.288,1.932L2.11,2.108C0.75,3.468,0,5.276,0,7.199
				c0,3.969,3.229,7.198,7.199,7.198s7.2-3.229,7.2-7.198C14.399,3.229,11.168,0,7.199,0z"/>
			<path fill="#ABC5C2" d="M6.357,7.875c0.208,0.259,0.515,0.407,0.842,0.407c0.598,0,1.084-0.486,1.084-1.083
				c0-0.302-0.13-0.594-0.342-0.787C7.917,6.386,7.885,6.349,7.835,6.311L4.467,3.747C4.281,3.605,4.003,3.606,3.819,3.748
				c-0.23,0.179-0.273,0.513-0.095,0.744L6.357,7.875z"/>
		</g>
	</g>
</g>
<g id="Artboard_1_3_">
	<g id="BG_1_">
	</g>
	<g id="Body_1_">
	</g>
	<g id="Footer_1_">
	</g>
	<g id="Header_1_">
	</g>
</g>
</svg>
