<?xml version="1.0" encoding="utf-8"?>
<!-- Generator: Adobe Illustrator 17.1.0, SVG Export Plug-In . SVG Version: 6.00 Build 0)  -->
<!DOCTYPE svg PUBLIC "-//W3C//DTD SVG 1.1//EN" "http://www.w3.org/Graphics/SVG/1.1/DTD/svg11.dtd">
<svg version="1.1" xmlns="http://www.w3.org/2000/svg" xmlns:xlink="http://www.w3.org/1999/xlink" x="0px" y="0px"
	 viewBox="0 0 31 31" enable-background="new 0 0 31 31" xml:space="preserve">
<g id="Grid_1_">
</g>
<g id="Loading_animation_graphics__x2B__SVG">
	<g>
		<path fill="#7A7D7E" d="M30.5,31h-8.361c-0.276,0-0.5-0.224-0.5-0.5V18.884c0-0.276,0.224-0.5,0.5-0.5h3.659l0.445-4.069h-4.104
			c-0.276,0-0.5-0.224-0.5-0.5v-2.294c0-0.861,0.103-1.411,0.335-1.782c0.347-0.594,1.027-0.901,2.016-0.901h2.238V4.805h-4.088
			c-1.007,0-1.804,0.145-2.666,0.483c-1.9,0.767-2.865,2.615-2.865,5.492v3.034c0,0.276-0.224,0.5-0.5,0.5h-2.46v4.069h2.46
			c0.276,0,0.5,0.224,0.5,0.5V30.5c0,0.276-0.224,0.5-0.5,0.5H0.5C0.224,31,0,30.776,0,30.5v-30C0,0.224,0.224,0,0.5,0h30
			C30.776,0,31,0.224,31,0.5v30C31,30.776,30.776,31,30.5,31z M22.639,30H30V1H1v29h14.607V19.384h-2.46c-0.276,0-0.5-0.224-0.5-0.5
			v-5.069c0-0.276,0.224-0.5,0.5-0.5h2.46v-2.534c0-3.325,1.176-5.485,3.495-6.421c0.977-0.384,1.912-0.554,3.036-0.554h4.588
			c0.276,0,0.5,0.224,0.5,0.5v5.032c0,0.276-0.224,0.5-0.5,0.5h-2.738c-0.915,0-1.099,0.315-1.16,0.418
			c-0.076,0.122-0.191,0.43-0.191,1.265v1.794h4.162c0.142,0,0.277,0.061,0.372,0.166c0.095,0.106,0.14,0.247,0.125,0.388
			l-0.555,5.069c-0.028,0.254-0.242,0.446-0.497,0.446h-3.607V30z"/>
	</g>
</g>
<g id="Artboard_6">
	<g id="BG_5_">
	</g>
	<g id="Footer_5_">
	</g>
	<g id="Body_5_">
	</g>
	<g id="Header_5_">
	</g>
</g>
<g id="Artboard_5">
	<g id="BG_4_">
	</g>
	<g id="Footer_4_">
	</g>
	<g id="Body_4_">
	</g>
	<g id="Header_4_">
	</g>
</g>
<g id="Artboard_4">
	<g id="BG_3_">
	</g>
	<g id="Footer_3_">
	</g>
	<g id="Body_3_">
	</g>
	<g id="Header_3_">
	</g>
</g>
<g id="Artboard_3">
	<g id="BG_2_">
	</g>
	<g id="Body_2_">
	</g>
	<g id="Footer_2_">
	</g>
	<g id="Header_2_">
	</g>
</g>
<g id="Artboard_2">
	<g id="BG_1_">
	</g>
	<g id="Body_1_">
	</g>
	<g id="Footer_1_">
	</g>
	<g id="Header_1_">
	</g>
</g>
<g id="Artboard_1">
	<g id="BG">
	</g>
	<g id="Body">
	</g>
	<g id="Footer">
	</g>
	<g id="Header">
	</g>
</g>
</svg>
