<?xml version="1.0" encoding="utf-8"?>
<!-- Generator: Adobe Illustrator 17.1.0, SVG Export Plug-In . SVG Version: 6.00 Build 0)  -->
<!DOCTYPE svg PUBLIC "-//W3C//DTD SVG 1.1//EN" "http://www.w3.org/Graphics/SVG/1.1/DTD/svg11.dtd">
<svg version="1.1" xmlns="http://www.w3.org/2000/svg" xmlns:xlink="http://www.w3.org/1999/xlink" x="0px" y="0px"
	 viewBox="0 0 70.798 72.548" enable-background="new 0 0 70.798 72.548" xml:space="preserve">
<g id="Grid_1_">
</g>
<g id="Loading_animation_graphics__x2B__SVG">
	<path fill="#595D5E" d="M13.84,30.631c0.537-3.895,1.678-7.691,3.426-11.386c1.746-3.694,4.046-6.968,6.902-9.824
		c2.854-2.854,6.23-5.139,10.126-6.852C38.19,0.856,42.557,0,47.393,0c6.381,0,11.822,1.461,16.323,4.383
		c1.457,0.946,2.791,1.979,4.001,3.097c0.884,0.817,1.703,1.681,2.456,2.59l-2.284,5.181c-0.705-1.081-1.473-2.062-2.303-2.942
		c-0.167-0.177-0.338-0.351-0.51-0.52c-1.713-1.678-3.561-3.039-5.542-4.081c-1.982-1.041-4.048-1.796-6.197-2.267
		c-2.151-0.469-4.266-0.705-6.348-0.705c-4.03,0-7.642,0.723-10.832,2.166c-3.191,1.445-5.979,3.375-8.363,5.794
		c-2.385,2.418-4.317,5.189-5.794,8.313c-1.478,3.124-2.453,6.332-2.922,9.623h38.296l-1.512,3.426H18.677v1.914
		c0,1.612,0.101,3.158,0.302,4.635h32.546l-1.612,3.426H19.583c0.806,3.36,2.066,6.483,3.779,9.371
		c1.713,2.889,3.779,5.391,6.197,7.507c2.418,2.116,5.139,3.796,8.162,5.038c1.199,0.493,2.425,0.889,3.677,1.186
		c1.904,0.452,3.868,0.678,5.895,0.678c2.149,0,4.348-0.268,6.6-0.806c2.25-0.537,4.433-1.376,6.549-2.519
		c2.116-1.141,4.081-2.602,5.894-4.383c0.826-0.81,1.589-1.686,2.289-2.629l2.173,5.098c-0.158,0.17-0.319,0.338-0.482,0.504
		c-2.05,2.083-4.35,3.829-6.902,5.24c-2.554,1.411-5.257,2.469-8.111,3.174c-2.856,0.705-5.66,1.058-8.413,1.058
		c-2.612,0-5.105-0.303-7.479-0.911c-1.412-0.361-2.781-0.83-4.109-1.407c-3.561-1.544-6.751-3.627-9.572-6.247
		c-2.821-2.62-5.189-5.658-7.104-9.119c-1.914-3.459-3.309-7.069-4.182-10.832H0l1.511-3.426H13.84
		c-0.202-1.612-0.302-3.257-0.302-4.937v-1.612H5.981l1.511-3.426H13.84z"/>
	<polygon fill="#595D5E" points="7.763,28.559 4.637,30.232 1.511,31.905 4.651,33.777 7.791,35.649 7.777,32.104 	"/>
	<polygon fill="#595D5E" points="49.801,38.517 52.927,40.191 56.053,41.864 52.913,43.736 49.773,45.608 49.787,42.063 	"/>
</g>
<g id="Artboard_6">
	<g id="BG_5_">
	</g>
	<g id="Footer_5_">
	</g>
	<g id="Body_5_">
	</g>
	<g id="Header_5_">
	</g>
</g>
<g id="Artboard_5">
	<g id="BG_4_">
	</g>
	<g id="Footer_4_">
	</g>
	<g id="Body_4_">
	</g>
	<g id="Header_4_">
	</g>
</g>
<g id="Artboard_4">
	<g id="BG_3_">
	</g>
	<g id="Footer_3_">
	</g>
	<g id="Body_3_">
	</g>
	<g id="Header_3_">
	</g>
</g>
<g id="Artboard_3">
	<g id="BG_2_">
	</g>
	<g id="Body_2_">
	</g>
	<g id="Footer_2_">
	</g>
	<g id="Header_2_">
	</g>
</g>
<g id="Artboard_2">
	<g id="BG_1_">
	</g>
	<g id="Body_1_">
	</g>
	<g id="Footer_1_">
	</g>
	<g id="Header_1_">
	</g>
</g>
<g id="Artboard_1">
	<g id="BG">
	</g>
	<g id="Body">
	</g>
	<g id="Footer">
	</g>
	<g id="Header">
	</g>
</g>
</svg>
