<?xml version="1.0" encoding="utf-8"?>
<!-- Generator: Adobe Illustrator 17.1.0, SVG Export Plug-In . SVG Version: 6.00 Build 0)  -->
<!DOCTYPE svg PUBLIC "-//W3C//DTD SVG 1.1//EN" "http://www.w3.org/Graphics/SVG/1.1/DTD/svg11.dtd">
<svg version="1.1" xmlns="http://www.w3.org/2000/svg" xmlns:xlink="http://www.w3.org/1999/xlink" x="0px" y="0px"
	 viewBox="0 0 46.927 47.044" enable-background="new 0 0 46.927 47.044" xml:space="preserve">
<g id="Grid_1_">
</g>
<g id="Loading_animation_graphics__x2B__SVG">
	<g>
		<g>
			<linearGradient id="SVGID_1_" gradientUnits="userSpaceOnUse" x1="16.2218" y1="3.6493" x2="30.7121" y2="3.6493">
				<stop  offset="0" style="stop-color:#323232"/>
				<stop  offset="1" style="stop-color:#323232;stop-opacity:0.2"/>
			</linearGradient>
			<polygon fill="url(#SVGID_1_)" points="30.712,0 16.222,0 23.519,7.299 			"/>
			<linearGradient id="SVGID_2_" gradientUnits="userSpaceOnUse" x1="0.2205" y1="17.5417" x2="11.2193" y2="17.5417">
				<stop  offset="0" style="stop-color:#323232"/>
				<stop  offset="1" style="stop-color:#323232;stop-opacity:0.2"/>
			</linearGradient>
			<polygon fill="url(#SVGID_2_)" points="11.219,12.043 0.22,15.709 7.552,23.041 			"/>
			<linearGradient id="SVGID_3_" gradientUnits="userSpaceOnUse" x1="0.2205" y1="29.514" x2="11.1713" y2="29.514">
				<stop  offset="0" style="stop-color:#323232"/>
				<stop  offset="1" style="stop-color:#323232;stop-opacity:0.2"/>
			</linearGradient>
			<polygon fill="url(#SVGID_3_)" points="7.551,24.005 0.22,31.336 11.171,35.023 			"/>
			<polygon fill="#323232" points="22.98,39.546 11.989,35.846 15.595,46.825 			"/>
			<polygon fill="#323232" points="39.627,39.377 46.927,46.676 46.927,32.077 			"/>
			<linearGradient id="SVGID_4_" gradientUnits="userSpaceOnUse" x1="23.979" y1="35.4951" x2="38.6343" y2="35.4951">
				<stop  offset="0" style="stop-color:#323232"/>
				<stop  offset="1" style="stop-color:#323232;stop-opacity:0.2"/>
			</linearGradient>
			<polygon fill="url(#SVGID_4_)" points="23.979,39.173 38.634,39.118 31.333,31.818 			"/>
			<linearGradient id="SVGID_5_" gradientUnits="userSpaceOnUse" x1="38.6291" y1="43.2873" x2="24.0897" y2="43.2873">
				<stop  offset="0" style="stop-color:#323232"/>
				<stop  offset="1" style="stop-color:#323232;stop-opacity:0.2"/>
			</linearGradient>
			<polygon fill="url(#SVGID_5_)" points="31.333,46.936 38.629,39.639 24.09,39.692 			"/>
			<polygon fill="#323232" points="23.979,7.663 38.634,7.61 31.333,0.308 			"/>
			<polygon fill="#323232" points="7.298,23.522 0,16.222 0,30.822 			"/>
			<polygon fill="#323232" points="31.333,31.449 31.333,31.449 31.333,31.45 			"/>
			<polygon fill="#323232" points="16.113,47.044 30.706,47.044 23.462,39.801 			"/>
			<polygon fill="#323232" points="46.559,31.71 31.961,31.709 39.26,39.009 			"/>
			<polygon fill="#323232" points="0.702,15 11.425,11.426 14.998,0.703 			"/>
			<polygon fill="#323232" points="22.669,38.891 8.255,24.477 11.786,35.229 			"/>
			<linearGradient id="SVGID_6_" gradientUnits="userSpaceOnUse" x1="8.2618" y1="15.4114" x2="22.5578" y2="15.4114">
				<stop  offset="0" style="stop-color:#323232"/>
				<stop  offset="1" style="stop-color:#323232;stop-opacity:0.2"/>
			</linearGradient>
			<polygon fill="url(#SVGID_6_)" points="22.558,8.263 11.836,11.837 8.262,22.56 			"/>
			<polygon fill="#323232" points="22.953,7.583 15.678,0.308 12.042,11.22 			"/>
			<linearGradient id="SVGID_7_" gradientUnits="userSpaceOnUse" x1="14.8361" y1="39.1135" x2="0.7075" y2="39.1135">
				<stop  offset="0" style="stop-color:#323232"/>
				<stop  offset="1" style="stop-color:#323232;stop-opacity:0.2"/>
			</linearGradient>
			<polygon fill="url(#SVGID_7_)" points="11.374,35.639 0.707,32.05 14.836,46.177 			"/>
		</g>
	</g>
</g>
<g id="Artboard_6">
	<g id="BG_5_">
	</g>
	<g id="Footer_5_">
	</g>
	<g id="Body_5_">
	</g>
	<g id="Header_5_">
	</g>
</g>
<g id="Artboard_5">
	<g id="BG_4_">
	</g>
	<g id="Footer_4_">
	</g>
	<g id="Body_4_">
	</g>
	<g id="Header_4_">
	</g>
</g>
<g id="Artboard_4">
	<g id="BG_3_">
	</g>
	<g id="Footer_3_">
	</g>
	<g id="Body_3_">
	</g>
	<g id="Header_3_">
	</g>
</g>
<g id="Artboard_3">
	<g id="BG_2_">
	</g>
	<g id="Body_2_">
	</g>
	<g id="Footer_2_">
	</g>
	<g id="Header_2_">
	</g>
</g>
<g id="Artboard_2">
	<g id="BG_1_">
	</g>
	<g id="Body_1_">
	</g>
	<g id="Footer_1_">
	</g>
	<g id="Header_1_">
	</g>
</g>
<g id="Artboard_1">
	<g id="BG">
	</g>
	<g id="Body">
	</g>
	<g id="Footer">
	</g>
	<g id="Header">
	</g>
</g>
</svg>
