<?xml version="1.0" encoding="utf-8"?>
<!-- Generator: Adobe Illustrator 17.1.0, SVG Export Plug-In . SVG Version: 6.00 Build 0)  -->
<!DOCTYPE svg PUBLIC "-//W3C//DTD SVG 1.1//EN" "http://www.w3.org/Graphics/SVG/1.1/DTD/svg11.dtd">
<svg version="1.1" xmlns="http://www.w3.org/2000/svg" xmlns:xlink="http://www.w3.org/1999/xlink" x="0px" y="0px"
	 viewBox="0 0 21 21" enable-background="new 0 0 21 21" xml:space="preserve">
<g id="Grid_1_">
</g>
<g id="Artboard_6">
	<g id="BG_5_" display="none">
	</g>
	<g id="body">
	</g>
	<g id="Footer_5_">
	</g>
	<g id="Header_5_">
	</g>
</g>
<g id="Artboard_5">
	<g id="BG_4_">
	</g>
	<g id="Body_4_">
	</g>
	<g id="Footer_4_">
	</g>
	<g id="Header_4_">
	</g>
</g>
<g id="Artboard_4">
	<g id="BG_3_">
	</g>
	<g id="Body_3_">
	</g>
	<g id="Footer_3_">
	</g>
	<g id="Header_3_">
	</g>
</g>
<g id="Artboard_3">
	<g id="BG_2_">
	</g>
	<g id="Body_2_">
	</g>
	<g id="Footer_2_">
	</g>
	<g id="Header_2_">
	</g>
</g>
<g id="Artboard_2">
	<g id="BG_1_">
	</g>
	<g id="Body_1_">
	</g>
	<g id="Footer_1_">
	</g>
	<g id="Header_1_">
	</g>
</g>
<g id="Artboard_1">
	<g id="BG" display="none">
	</g>
	<g id="Body">
	</g>
	<g id="Footer">
	</g>
	<g id="Header">
	</g>
</g>
<g id="SVG">
	<g>
		<path fill="#FFFFFF" d="M10.5,21C4.71,21,0,16.29,0,10.5S4.71,0,10.5,0S21,4.71,21,10.5S16.29,21,10.5,21z M10.5,1
			C5.262,1,1,5.262,1,10.5S5.262,20,10.5,20s9.5-4.262,9.5-9.5S15.738,1,10.5,1z"/>
	</g>
	<path fill="#FFFFFF" d="M15.833,10.5c0,2.933-2.4,5.333-5.333,5.333s-5.333-2.4-5.333-5.333s2.4-5.333,5.333-5.333
		S15.833,7.567,15.833,10.5z"/>
</g>
</svg>
