<?xml version="1.0" encoding="utf-8"?>
<!-- Generator: Adobe Illustrator 17.1.0, SVG Export Plug-In . SVG Version: 6.00 Build 0)  -->
<!DOCTYPE svg PUBLIC "-//W3C//DTD SVG 1.1//EN" "http://www.w3.org/Graphics/SVG/1.1/DTD/svg11.dtd">
<svg version="1.1" xmlns="http://www.w3.org/2000/svg" xmlns:xlink="http://www.w3.org/1999/xlink" x="0px" y="0px"
	 viewBox="0 0 30.889 30.889" enable-background="new 0 0 30.889 30.889" xml:space="preserve">
<g id="Grid_1_">
</g>
<g id="Artboard_6">
	<g id="BG_5_" display="none">
	</g>
	<g id="body">
	</g>
	<g id="Footer_5_">
	</g>
	<g id="Header_5_">
	</g>
</g>
<g id="Artboard_5">
	<g id="BG_4_">
	</g>
	<g id="Body_4_">
	</g>
	<g id="Footer_4_">
	</g>
	<g id="Header_4_">
	</g>
</g>
<g id="Artboard_4">
	<g id="BG_3_">
	</g>
	<g id="Body_3_">
	</g>
	<g id="Footer_3_">
	</g>
	<g id="Header_3_">
	</g>
</g>
<g id="Artboard_3">
	<g id="BG_2_">
	</g>
	<g id="Body_2_">
	</g>
	<g id="Footer_2_">
	</g>
	<g id="Header_2_">
	</g>
</g>
<g id="Artboard_2">
	<g id="BG_1_">
	</g>
	<g id="Body_1_">
	</g>
	<g id="Footer_1_">
	</g>
	<g id="Header_1_">
	</g>
</g>
<g id="Artboard_1">
	<g id="BG" display="none">
	</g>
	<g id="Body">
	</g>
	<g id="Footer">
	</g>
	<g id="Header">
	</g>
</g>
<g id="SVG">
	<path fill="#FFFFFF" d="M17.298,1.236V3.29v0.957l0.927,0.24c1.049,0.271,2.049,0.692,2.973,1.253l0.829,0.503l0.685-0.686
		l1.47-1.469l2.621,2.621l-1.519,1.519l-0.669,0.668l0.471,0.82c0.522,0.91,0.913,1.895,1.161,2.928l0.227,0.947h0.974h2.206v3.707
		h-2.311h-0.941l-0.25,0.907c-0.27,0.978-0.676,1.916-1.205,2.788l-0.503,0.83l0.686,0.685l1.673,1.673l-2.621,2.621l-1.723-1.722
		l-0.669-0.669l-0.82,0.471c-0.851,0.489-1.774,0.863-2.744,1.114l-0.927,0.239v0.957v2.462h-3.707v-2.462v-0.957l-0.927-0.239
		c-0.97-0.25-1.894-0.624-2.744-1.114l-0.82-0.471L8.43,25.079l-1.723,1.723l-2.621-2.621l1.673-1.673l0.686-0.685l-0.503-0.83
		c-0.53-0.872-0.935-1.81-1.205-2.788l-0.25-0.907H3.546H1.236v-3.707h2.206h0.974l0.227-0.947c0.247-1.033,0.638-2.018,1.161-2.928
		l0.471-0.82L5.606,8.227L4.087,6.708l2.621-2.621l1.47,1.469l0.685,0.686l0.829-0.503c0.924-0.561,1.924-0.982,2.973-1.253
		l0.927-0.24V3.29V1.236H17.298 M15.444,21.005c3.066,0,5.56-2.495,5.56-5.561c0-3.066-2.494-5.56-5.56-5.56s-5.56,2.495-5.56,5.56
		C9.884,18.511,12.378,21.005,15.444,21.005 M18.533,0h-6.178v3.29c-1.18,0.305-2.289,0.776-3.305,1.393L6.707,2.34L2.34,6.708
		l2.393,2.393c-0.577,1.005-1.014,2.098-1.291,3.255H0v6.178h3.546c0.305,1.105,0.759,2.144,1.34,3.101L2.34,24.181l4.368,4.369
		l2.597-2.597c0.946,0.544,1.97,0.96,3.051,1.239v3.698h6.178v-3.698c1.082-0.279,2.105-0.695,3.051-1.239l2.597,2.597l4.368-4.368
		l-2.547-2.547c0.581-0.957,1.035-1.996,1.34-3.101h3.546v-6.178h-3.441c-0.278-1.157-0.714-2.25-1.291-3.255l2.393-2.393
		L24.181,2.34l-2.343,2.343c-1.016-0.617-2.125-1.088-3.305-1.393V0L18.533,0z M15.444,19.77c-2.389,0-4.324-1.937-4.324-4.326
		c0-2.389,1.935-4.325,4.324-4.325s4.324,1.936,4.324,4.325C19.769,17.833,17.833,19.77,15.444,19.77L15.444,19.77z"/>
</g>
</svg>
