<?xml version="1.0" encoding="utf-8"?>
<!-- Generator: Adobe Illustrator 17.1.0, SVG Export Plug-In . SVG Version: 6.00 Build 0)  -->
<!DOCTYPE svg PUBLIC "-//W3C//DTD SVG 1.1//EN" "http://www.w3.org/Graphics/SVG/1.1/DTD/svg11.dtd">
<svg version="1.1" xmlns="http://www.w3.org/2000/svg" xmlns:xlink="http://www.w3.org/1999/xlink" x="0px" y="0px"
	 viewBox="0 0 34.339 29.784" enable-background="new 0 0 34.339 29.784" xml:space="preserve">
<g id="Grid_1_">
</g>
<g id="Loading_animation_graphics__x2B__SVG">
	<path fill="#7A7D7E" d="M23.297,1c1.999,0,3.764,0.877,4.995,2.258c0.077,0.002,0.174,0.004,0.285,0.004
		c0.497,0,1.283-0.035,1.861-0.228c0.908-0.303,2.034-0.952,2.034-0.952s-0.476,1.255-1.039,1.861
		c-0.562,0.606-1.298,1.558-1.298,1.558s1.385-0.086,2.034-0.39c0.649-0.303,1.168-0.649,1.168-0.649s-0.475,1.515-1.341,2.164
		c-0.661,0.495-1.519,0.963-1.89,1.158c0.143,1.785-0.09,3.507-0.129,3.957c-0.837,9.551-8.855,17.042-18.625,17.042
		c-3.829,0-7.388-1.153-10.352-3.128c0.162,0.005,0.322,0.012,0.485,0.012c3.566,0,6.843-1.24,9.423-3.313
		c-6.264-0.74-6.888-4.761-6.888-4.761s0.852,0.159,1.548,0.159c0.069,0,0.137-0.001,0.202-0.005
		c0.822-0.043,1.276-0.455,1.276-0.455s-2.553-0.714-3.786-2.358s-1.433-4.047-1.433-4.047s0.719,0.477,1.498,0.65
		c0.39,0.087,0.742,0.108,0.996,0.108c0.253,0,0.41-0.021,0.41-0.021S0.404,8.118,2.687,2.479c3.261,4.148,8.236,6.879,13.859,7.13
		c0-0.71,0-1.554,0-1.858C16.546,4.023,19.568,1,23.297,1 M33.337,4.462h0.005 M23.297,0c-4.274,0-7.751,3.477-7.751,7.751v0.781
		C10.802,8.039,6.447,5.645,3.473,1.861C3.282,1.618,2.991,1.479,2.687,1.479c-0.046,0-0.093,0.003-0.14,0.01
		C2.193,1.539,1.894,1.773,1.76,2.104c-1.282,3.167-0.682,5.9,0.361,7.828C2.025,9.902,1.926,9.888,1.827,9.888
		c-0.176,0-0.352,0.046-0.509,0.139c-0.33,0.195-0.519,0.562-0.487,0.943c0.009,0.11,0.24,2.711,1.63,4.564
		c0.329,0.439,0.731,0.819,1.157,1.144c-0.107,0.047-0.207,0.114-0.293,0.198c-0.233,0.226-0.342,0.551-0.292,0.871
		c0.026,0.17,0.628,3.668,5.363,5.112c-2.093,1.189-4.445,1.809-6.91,1.809c-0.113,0-0.225-0.004-0.337-0.008L1.03,24.657
		c-0.01,0-0.021,0-0.031,0c-0.434,0-0.82,0.281-0.952,0.696c-0.136,0.425,0.027,0.889,0.398,1.136
		c3.236,2.156,7.008,3.296,10.906,3.296c10.12,0,18.738-7.887,19.621-17.955l0.024-0.234c0.061-0.584,0.194-1.847,0.144-3.236
		c0.432-0.245,0.986-0.581,1.455-0.932c1.002-0.751,1.543-2.209,1.671-2.59c0.047-0.116,0.073-0.242,0.073-0.375
		c0-0.552-0.445-1-0.998-1h-0.004c0,0,0,0,0,0c-0.002,0-0.005,0-0.008,0h0c0,0-0.001,0-0.001,0c-0.001,0-0.001,0-0.002,0
		c0,0,0,0,0,0c-0.158,0.002-0.307,0.04-0.44,0.107c0.294-0.544,0.489-1.045,0.522-1.133c0.15-0.395,0.035-0.842-0.287-1.116
		c-0.186-0.158-0.417-0.239-0.649-0.239c-0.171,0-0.343,0.044-0.499,0.133c-0.011,0.006-1.052,0.603-1.852,0.87
		c-0.31,0.104-0.813,0.166-1.396,0.175C27.269,0.799,25.358,0,23.297,0L23.297,0z"/>
</g>
<g id="Artboard_6">
	<g id="BG_5_">
	</g>
	<g id="Footer_5_">
	</g>
	<g id="Body_5_">
	</g>
	<g id="Header_5_">
	</g>
</g>
<g id="Artboard_5">
	<g id="BG_4_">
	</g>
	<g id="Footer_4_">
	</g>
	<g id="Body_4_">
	</g>
	<g id="Header_4_">
	</g>
</g>
<g id="Artboard_4">
	<g id="BG_3_">
	</g>
	<g id="Footer_3_">
	</g>
	<g id="Body_3_">
	</g>
	<g id="Header_3_">
	</g>
</g>
<g id="Artboard_3">
	<g id="BG_2_">
	</g>
	<g id="Body_2_">
	</g>
	<g id="Footer_2_">
	</g>
	<g id="Header_2_">
	</g>
</g>
<g id="Artboard_2">
	<g id="BG_1_">
	</g>
	<g id="Body_1_">
	</g>
	<g id="Footer_1_">
	</g>
	<g id="Header_1_">
	</g>
</g>
<g id="Artboard_1">
	<g id="BG">
	</g>
	<g id="Body">
	</g>
	<g id="Footer">
	</g>
	<g id="Header">
	</g>
</g>
</svg>
