<?xml version="1.0" encoding="utf-8"?>
<!-- Generator: Adobe Illustrator 17.1.0, SVG Export Plug-In . SVG Version: 6.00 Build 0)  -->
<!DOCTYPE svg PUBLIC "-//W3C//DTD SVG 1.1//EN" "http://www.w3.org/Graphics/SVG/1.1/DTD/svg11.dtd">
<svg version="1.1" id="Layer_1" xmlns="http://www.w3.org/2000/svg" xmlns:xlink="http://www.w3.org/1999/xlink" x="0px" y="0px"
	 viewBox="0 0 31.5 31.125" enable-background="new 0 0 31.5 31.125" xml:space="preserve">
<g>
	<path fill="#FFFFFF" d="M11.174,19.279h1.982c-0.362-1.168-0.688-2.29-0.956-3.367C11.862,17.079,11.512,18.202,11.174,19.279z"/>
	<path fill="#FFFFFF" d="M28.334,0.989H3.216c-1.101,0-1.994,0.892-1.994,1.993V28.1c0,1.102,0.893,1.994,1.994,1.994h25.118
		c1.099,0,1.995-0.891,1.995-1.994V2.981C30.329,1.881,29.433,0.989,28.334,0.989z M19.086,8.58h0.624v3.529h-0.624V8.58z
		 M14.112,22.399l-0.653-2.043h-2.612l-0.653,2.043H8.807l2.646-7.768h1.551l2.577,7.768H14.112z M20.303,22.579
		c-0.256-0.18-0.408-0.382-0.513-0.73c-0.431,0.472-1.003,0.697-1.678,0.697c-0.665,0-1.178-0.225-1.469-0.561
		c-0.233-0.27-0.327-0.64-0.327-1.347v-3.828l1.272-0.224v3.805c0,0.707,0.104,1.223,0.827,1.223c0.42,0,0.945-0.336,1.142-0.741
		v-4.063l1.272-0.224v4.276c0,0.852,0.36,1.133,0.36,1.133L20.303,22.579z M22.67,9.07h-0.921v3.039h-0.61V9.07h-0.927V8.58h2.537
		L22.67,9.07z"/>
</g>
</svg>
