<?xml version="1.0" encoding="utf-8"?>
<!-- Generator: Adobe Illustrator 17.1.0, SVG Export Plug-In . SVG Version: 6.00 Build 0)  -->
<!DOCTYPE svg PUBLIC "-//W3C//DTD SVG 1.1//EN" "http://www.w3.org/Graphics/SVG/1.1/DTD/svg11.dtd">
<svg version="1.1" xmlns="http://www.w3.org/2000/svg" xmlns:xlink="http://www.w3.org/1999/xlink" x="0px" y="0px"
	 viewBox="0 0 20 17.25" enable-background="new 0 0 20 17.25" xml:space="preserve">
<g id="Grid_1_">
</g>
<g id="Artboard_6">
	<g id="BG_5_">
	</g>
	<g id="Body_5_">
	</g>
	<g id="Footer_5_">
	</g>
	<g id="Header_5_">
	</g>
</g>
<g id="Artboard_5">
	<g id="BG">
	</g>
	<g id="Body">
	</g>
	<g id="Footer">
	</g>
	<g id="Header_4_">
	</g>
</g>
<g id="ARtboard_4">
	<g id="BG_4_">
	</g>
	<g id="Body_4_">
	</g>
	<g id="Footer_4_">
	</g>
	<g id="Header_3_">
	</g>
</g>
<g id="Artboard_3_4_">
	<g id="BG_3_">
	</g>
	<g id="Body_3_">
	</g>
	<g id="Footer_3_">
	</g>
	<g id="Header_2_">
	</g>
</g>
<g id="Artboard_2_3_">
	<g id="BG_2_">
	</g>
	<g id="Body_2_">
	</g>
	<g id="Footer_2_">
	</g>
	<g id="Header">
		<g>
			<path fill="#ABC5C2" d="M10,15.805c-4.104,0-7.444-3.339-7.444-7.444c0-0.414,0.034-0.828,0.102-1.231l1.149,0.192
				C3.75,7.661,3.722,8.011,3.722,8.361c0,3.462,2.817,6.279,6.279,6.279c1.749,0,3.432-0.738,4.618-2.025l0.857,0.79
				C14.07,14.93,12.074,15.805,10,15.805z"/>
		</g>
		<g>
			<path fill="#ABC5C2" d="M17.106,10.585l-1.112-0.348C16.183,9.631,16.28,9,16.28,8.361c0-3.462-2.817-6.279-6.279-6.279
				c-2.08,0-4.021,1.028-5.194,2.75L3.844,4.176C5.233,2.135,7.535,0.917,10,0.917c4.105,0,7.444,3.339,7.444,7.444
				C17.445,9.118,17.331,9.866,17.106,10.585z"/>
		</g>
		<g>
			<path fill="#ABC5C2" d="M16.713,11.443l-2.521-2.521c-0.228-0.228-0.228-0.596,0-0.824c0.228-0.228,0.596-0.227,0.824,0
				l1.698,1.698l1.698-1.698c0.228-0.227,0.596-0.227,0.824,0c0.228,0.227,0.228,0.596,0,0.824L16.713,11.443z"/>
		</g>
		<g>
			<path fill="#ABC5C2" d="M5.398,10.009c-0.149,0-0.298-0.057-0.412-0.171L3.288,8.14L1.591,9.838
				c-0.228,0.228-0.596,0.228-0.824,0c-0.228-0.227-0.228-0.596,0-0.824l2.521-2.522L5.81,9.014c0.228,0.227,0.228,0.596,0,0.824
				C5.696,9.952,5.547,10.009,5.398,10.009z"/>
		</g>
	</g>
</g>
<g id="Artboard_1_3_">
	<g id="BG_1_">
	</g>
	<g id="Body_1_">
	</g>
	<g id="Footer_1_">
	</g>
	<g id="Header_1_">
	</g>
</g>
</svg>
